<?xml version="1.0" encoding="UTF-8" standalone="no"?>
<svg
   id="Layer_1"
   data-name="Layer 1"
   viewBox="0 0 1849 848.170"
   version="1.1"
   width="1849"
   height="848.170"
   xmlns:xlink="http://www.w3.org/1999/xlink"
   xmlns="http://www.w3.org/2000/svg"
   xmlns:svg="http://www.w3.org/2000/svg">
  <defs
     id="defs19">
    <style
       id="style2">
      .cls-1 {
        fill: url(#linear-gradient);
      }
    </style>
    <linearGradient
       id="linear-gradient"
       x1="77.25"
       y1="128.97"
       x2="1547.37"
       y2="772.14001"
       gradientUnits="userSpaceOnUse">
      <stop
         offset="0"
         stop-color="#ced9ed"
         id="stop4" />
      <stop
         offset=".12"
         stop-color="#ced4f0"
         id="stop6" />
      <stop
         offset=".24"
         stop-color="#cec8f9"
         id="stop8" />
      <stop
         offset=".25"
         stop-color="#cfc7fa"
         id="stop10" />
      <stop
         offset=".5"
         stop-color="#e2c6ee"
         id="stop12" />
      <stop
         offset=".75"
         stop-color="#efc8dd"
         id="stop14" />
      <stop
         offset="1"
         stop-color="#d7e9db"
         id="stop16" />
    </linearGradient>
    <linearGradient
       xlink:href="#linear-gradient"
       id="linearGradient384"
       gradientUnits="userSpaceOnUse"
       x1="77.25"
       y1="128.97"
       x2="1547.37"
       y2="772.14001" />
    <linearGradient
       xlink:href="#linear-gradient"
       id="linearGradient386"
       gradientUnits="userSpaceOnUse"
       x1="77.25"
       y1="128.97"
       x2="1547.37"
       y2="772.14001" />
    <linearGradient
       xlink:href="#linear-gradient"
       id="linearGradient388"
       gradientUnits="userSpaceOnUse"
       x1="77.25"
       y1="128.97"
       x2="1547.37"
       y2="772.14001" />
    <linearGradient
       xlink:href="#linear-gradient"
       id="linearGradient390"
       gradientUnits="userSpaceOnUse"
       x1="77.25"
       y1="128.97"
       x2="1547.37"
       y2="772.14001" />
    <linearGradient
       xlink:href="#linear-gradient"
       id="linearGradient392"
       gradientUnits="userSpaceOnUse"
       x1="77.25"
       y1="128.97"
       x2="1547.37"
       y2="772.14001" />
    <linearGradient
       xlink:href="#linear-gradient"
       id="linearGradient394"
       gradientUnits="userSpaceOnUse"
       x1="77.25"
       y1="128.97"
       x2="1547.37"
       y2="772.14001" />
    <linearGradient
       xlink:href="#linear-gradient"
       id="linearGradient396"
       gradientUnits="userSpaceOnUse"
       x1="77.25"
       y1="128.97"
       x2="1547.37"
       y2="772.14001" />
    <linearGradient
       xlink:href="#linear-gradient"
       id="linearGradient398"
       gradientUnits="userSpaceOnUse"
       x1="77.25"
       y1="128.97"
       x2="1547.37"
       y2="772.14001" />
    <linearGradient
       xlink:href="#linear-gradient"
       id="linearGradient400"
       gradientUnits="userSpaceOnUse"
       x1="77.25"
       y1="128.97"
       x2="1547.37"
       y2="772.14001" />
    <linearGradient
       xlink:href="#linear-gradient"
       id="linearGradient402"
       gradientUnits="userSpaceOnUse"
       x1="77.25"
       y1="128.97"
       x2="1547.37"
       y2="772.14001" />
  </defs>
  <g
     id="g41">
    <path
       d="M 0.15,537.22 V 99.17 c 0,-6.08 4.73,-10.82 10.82,-10.82 h 83.82 c 6.08,0 10.82,4.73 10.82,10.82 l 1.35,27.04 c 20.96,-29.07 52.73,-45.97 99.37,-45.97 91.26,0 154.13,76.39 154.13,173.73 0,97.34 -62.87,173.73 -154.13,173.73 -39.88,0 -69.63,-13.52 -91.94,-37.18 v 146.69 c 0,6.08 -4.73,10.82 -10.82,10.82 H 10.97 C 4.89,548.03 0.15,543.3 0.15,537.21 Z M 180.64,324.96 c 39.21,0 68.95,-27.72 68.95,-70.98 0,-43.26 -29.74,-70.98 -68.95,-70.98 -39.21,0 -67.6,27.72 -67.6,70.3 0,42.58 27.72,71.66 67.6,71.66 z"
       id="path21" />
    <path
       d="m 396.96,252.62 c 0,-97.34 68.28,-172.38 171.7,-172.38 103.42,0 160.21,73.68 160.21,158.86 0,35.83 -8.79,58.14 -41.91,58.14 H 507.82 c 12.17,30.42 41.24,41.91 82.47,41.91 18.93,0 40.56,-0.68 68.28,-15.55 5.41,-2.7 8.79,-1.35 12.17,4.06 l 31.1,43.26 c 2.7,4.06 3.38,9.46 -3.38,15.55 -27.72,28.39 -70.3,41.24 -117.62,41.24 C 472,427.71 396.97,354.7 396.97,252.63 Z M 628.15,219.5 c -6.76,-35.15 -31.1,-46.64 -58.81,-46.64 -27.71,0 -54.76,12.84 -63.54,46.64 z"
       id="path23" />
    <path
       d="M 806.62,316.17 V 175.56 h -41.24 c -6.08,0 -10.14,-4.73 -10.14,-10.82 V 99.17 c 0,-6.08 4.06,-10.82 10.14,-10.82 h 41.24 V 11.29 c 0,-6.08 4.73,-10.82 10.82,-10.82 h 93.29 c 6.08,0 10.82,4.73 10.82,10.82 v 77.07 h 49.35 c 6.08,0 10.82,4.73 10.82,10.82 v 65.57 c 0,6.08 -4.73,10.82 -10.82,10.82 h -49.35 v 128.44 c 0,16.22 12.17,25.69 28.39,25.69 6.08,0 11.49,0.68 20.96,0 5.41,-0.68 11.49,2.7 11.49,9.46 v 62.19 c 0,17.58 -37.86,22.31 -62.19,22.31 -56.11,0 -113.57,-25.01 -113.57,-107.48 z"
       id="path25" />
    <path
       d="m 1011.46,252.62 c 0,-97.34 68.28,-172.38 171.7,-172.38 103.42,0 160.21,73.68 160.21,158.86 0,35.83 -8.79,58.14 -41.91,58.14 h -179.14 c 12.17,30.42 41.24,41.91 82.47,41.91 18.93,0 40.56,-0.68 68.28,-15.55 5.41,-2.7 8.79,-1.35 12.17,4.06 l 31.1,43.26 c 2.7,4.06 3.38,9.46 -3.38,15.55 -27.71,28.39 -70.3,41.24 -117.62,41.24 -108.83,0 -183.87,-73.01 -183.87,-175.08 z m 231.19,-33.12 c -6.76,-35.15 -31.1,-46.64 -58.81,-46.64 -27.71,0 -54.76,12.84 -63.54,46.64 h 122.36 z"
       id="path27" />
    <path
       d="M 1396.77,408.78 V 99.17 c 0,-6.08 4.73,-10.82 10.82,-10.82 h 89.23 c 5.41,0 9.46,2.7 10.14,11.49 l 3.38,44.62 c 10.82,-37.18 31.1,-64.22 68.95,-64.22 16.9,0 25.69,4.73 30.42,8.79 5.41,4.06 6.76,8.79 6.76,14.87 v 75.04 c 0,8.11 -4.73,10.82 -14.2,8.79 -6.76,-2.03 -13.52,-3.38 -25.01,-3.38 -39.88,0 -66.92,20.96 -66.92,72.33 v 152.1 c 0,6.08 -4.73,10.82 -10.82,10.82 h -91.94 c -6.08,0 -10.82,-4.73 -10.82,-10.82 z"
       id="path29" />
    <path
       d="M 0.15,710.48 V 519.17 c 0,-6.08 4.73,-10.82 10.82,-10.82 h 91.93 c 6.08,0 10.82,4.73 10.82,10.82 v 162.92 c 0,41.24 16.9,61.52 50.02,61.52 33.12,0 50.7,-20.28 50.7,-61.52 V 519.17 c 0,-6.08 4.73,-10.82 10.82,-10.82 h 91.26 c 6.08,0 11.49,4.73 11.49,10.82 v 309.61 c 0,6.08 -5.41,10.82 -11.49,10.82 h -88.56 c -6.08,0 -10.14,-2.7 -10.82,-11.49 l -2.7,-37.18 c -18.93,33.8 -48.67,56.78 -95.31,56.78 C 50.85,847.71 0.15,796.33 0.15,710.48 Z"
       id="path31" />
    <path
       d="M 397.64,828.78 V 519.17 c 0,-6.08 4.73,-10.82 10.82,-10.82 h 89.23 c 5.41,0 9.46,2.7 10.14,11.49 l 3.38,44.62 c 10.82,-37.18 31.1,-64.22 68.95,-64.22 16.9,0 25.69,4.73 30.42,8.79 5.41,4.06 6.76,8.79 6.76,14.87 v 75.04 c 0,8.11 -4.73,10.82 -14.2,8.79 -6.76,-2.03 -13.52,-3.38 -25.01,-3.38 -39.88,0 -66.92,20.96 -66.92,72.33 v 152.1 c 0,6.08 -4.73,10.82 -10.82,10.82 h -91.94 c -6.08,0 -10.82,-4.73 -10.82,-10.82 z"
       id="path33" />
    <path
       d="m 651.14,790.25 c -3.38,-4.06 -2.7,-12.84 2.7,-20.28 l 29.74,-41.91 c 6.08,-9.46 12.17,-7.44 17.58,-4.06 30.42,20.28 52.73,29.74 73.68,29.74 14.87,0 24.34,-4.06 24.34,-16.22 0,-9.46 -6.08,-14.2 -26.36,-22.98 l -43.26,-16.9 c -43.94,-16.9 -71.66,-47.32 -71.66,-92.61 0,-66.92 57.46,-104.78 122.35,-104.78 45.29,0 87.2,18.25 116.95,53.4 4.06,4.73 2.7,10.14 -0.68,13.52 l -38.53,45.97 c -4.06,4.73 -9.46,4.06 -15.55,0 -21.63,-16.22 -39.21,-25.01 -56.11,-25.01 -18.25,0 -20.96,10.14 -20.96,16.9 0,8.79 9.46,16.22 20.96,20.28 l 52.73,20.96 c 41.24,16.22 73.68,46.64 73.01,96.67 -1.35,69.63 -60.84,104.78 -129.79,104.78 -56.11,0 -101.4,-22.31 -131.14,-57.46 z"
       id="path35" />
    <path
       d="m 947.91,672.62 c 0,-97.34 68.28,-172.38 171.7,-172.38 103.42,0 160.21,73.68 160.21,158.86 0,35.83 -8.79,58.13 -41.91,58.13 h -179.14 c 12.17,30.42 41.24,41.91 82.47,41.91 18.93,0 40.56,-0.68 68.28,-15.55 5.41,-2.7 8.79,-1.35 12.17,4.06 l 31.1,43.26 c 2.7,4.06 3.38,9.46 -3.38,15.55 -27.71,28.39 -70.3,41.24 -117.62,41.24 -108.83,0 -183.87,-73.01 -183.87,-175.08 z M 1179.1,639.5 c -6.76,-35.15 -31.1,-46.64 -58.81,-46.64 -27.71,0 -54.76,12.84 -63.54,46.64 h 122.36 z"
       id="path37" />
    <path
       d="M 1333.22,828.78 V 519.17 c 0,-6.08 4.73,-10.82 10.82,-10.82 h 89.23 c 5.41,0 10.14,2.7 10.14,11.49 l 2.7,33.12 c 18.93,-31.1 49.35,-52.73 92.61,-52.73 40.56,0 73.01,19.6 91.94,55.43 19.6,-32.45 52.73,-55.43 101.4,-55.43 72.33,0 116.95,50.7 116.95,137.23 v 191.31 c 0,6.08 -4.73,10.82 -10.82,10.82 h -91.94 c -6.08,0 -10.82,-4.73 -10.82,-10.82 V 664.5 c 0,-39.88 -13.52,-60.16 -43.94,-60.16 -30.42,0 -43.94,20.28 -43.94,60.16 v 164.27 c 0,6.08 -4.73,10.82 -10.82,10.82 h -90.58 c -7.44,0 -12.17,-4.73 -12.17,-10.82 V 664.5 c 0,-39.88 -12.84,-60.16 -43.26,-60.16 -28.39,0 -43.94,20.28 -43.94,60.16 v 164.27 c 0,6.08 -4.73,10.82 -10.82,10.82 h -91.94 c -6.08,0 -10.82,-4.73 -10.82,-10.82 z"
       id="path39" />
  </g>
  <g
     id="g63">
    <path
       class="cls-1"
       d="M 0.15,537.22 V 99.17 c 0,-6.08 4.73,-10.82 10.82,-10.82 h 83.82 c 6.08,0 10.82,4.73 10.82,10.82 l 1.35,27.04 c 20.96,-29.07 52.73,-45.97 99.37,-45.97 91.26,0 154.13,76.39 154.13,173.73 0,97.34 -62.87,173.73 -154.13,173.73 -39.88,0 -69.63,-13.52 -91.94,-37.18 v 146.69 c 0,6.08 -4.73,10.82 -10.82,10.82 H 10.97 C 4.89,548.03 0.15,543.3 0.15,537.21 Z M 180.64,324.96 c 39.21,0 68.95,-27.72 68.95,-70.98 0,-43.26 -29.74,-70.98 -68.95,-70.98 -39.21,0 -67.6,27.72 -67.6,70.3 0,42.58 27.72,71.66 67.6,71.66 z"
       id="path43"
       style="fill:url(#linearGradient384)" />
    <path
       class="cls-1"
       d="m 396.96,252.62 c 0,-97.34 68.28,-172.38 171.7,-172.38 103.42,0 160.21,73.68 160.21,158.86 0,35.83 -8.79,58.14 -41.91,58.14 H 507.82 c 12.17,30.42 41.24,41.91 82.47,41.91 18.93,0 40.56,-0.68 68.28,-15.55 5.41,-2.7 8.79,-1.35 12.17,4.06 l 31.1,43.26 c 2.7,4.06 3.38,9.46 -3.38,15.55 -27.72,28.39 -70.3,41.24 -117.62,41.24 C 472,427.71 396.97,354.7 396.97,252.63 Z M 628.15,219.5 c -6.76,-35.15 -31.1,-46.64 -58.81,-46.64 -27.71,0 -54.76,12.84 -63.54,46.64 z"
       id="path45"
       style="fill:url(#linearGradient386)" />
    <path
       class="cls-1"
       d="M 806.62,316.17 V 175.56 h -41.24 c -6.08,0 -10.14,-4.73 -10.14,-10.82 V 99.17 c 0,-6.08 4.06,-10.82 10.14,-10.82 h 41.24 V 11.29 c 0,-6.08 4.73,-10.82 10.82,-10.82 h 93.29 c 6.08,0 10.82,4.73 10.82,10.82 v 77.07 h 49.35 c 6.08,0 10.82,4.73 10.82,10.82 v 65.57 c 0,6.08 -4.73,10.82 -10.82,10.82 h -49.35 v 128.44 c 0,16.22 12.17,25.69 28.39,25.69 6.08,0 11.49,0.68 20.96,0 5.41,-0.68 11.49,2.7 11.49,9.46 v 62.19 c 0,17.58 -37.86,22.31 -62.19,22.31 -56.11,0 -113.57,-25.01 -113.57,-107.48 z"
       id="path47"
       style="fill:url(#linearGradient388)" />
    <path
       class="cls-1"
       d="m 1011.46,252.62 c 0,-97.34 68.28,-172.38 171.7,-172.38 103.42,0 160.21,73.68 160.21,158.86 0,35.83 -8.79,58.14 -41.91,58.14 h -179.14 c 12.17,30.42 41.24,41.91 82.47,41.91 18.93,0 40.56,-0.68 68.28,-15.55 5.41,-2.7 8.79,-1.35 12.17,4.06 l 31.1,43.26 c 2.7,4.06 3.38,9.46 -3.38,15.55 -27.71,28.39 -70.3,41.24 -117.62,41.24 -108.83,0 -183.87,-73.01 -183.87,-175.08 z m 231.19,-33.12 c -6.76,-35.15 -31.1,-46.64 -58.81,-46.64 -27.71,0 -54.76,12.84 -63.54,46.64 h 122.36 z"
       id="path49"
       style="fill:url(#linearGradient390)" />
    <path
       class="cls-1"
       d="M 1396.77,408.78 V 99.17 c 0,-6.08 4.73,-10.82 10.82,-10.82 h 89.23 c 5.41,0 9.46,2.7 10.14,11.49 l 3.38,44.62 c 10.82,-37.18 31.1,-64.22 68.95,-64.22 16.9,0 25.69,4.73 30.42,8.79 5.41,4.06 6.76,8.79 6.76,14.87 v 75.04 c 0,8.11 -4.73,10.82 -14.2,8.79 -6.76,-2.03 -13.52,-3.38 -25.01,-3.38 -39.88,0 -66.92,20.96 -66.92,72.33 v 152.1 c 0,6.08 -4.73,10.82 -10.82,10.82 h -91.94 c -6.08,0 -10.82,-4.73 -10.82,-10.82 z"
       id="path51"
       style="fill:url(#linearGradient392)" />
    <path
       class="cls-1"
       d="M 0.15,710.48 V 519.17 c 0,-6.08 4.73,-10.82 10.82,-10.82 h 91.93 c 6.08,0 10.82,4.73 10.82,10.82 v 162.92 c 0,41.24 16.9,61.52 50.02,61.52 33.12,0 50.7,-20.28 50.7,-61.52 V 519.17 c 0,-6.08 4.73,-10.82 10.82,-10.82 h 91.26 c 6.08,0 11.49,4.73 11.49,10.82 v 309.61 c 0,6.08 -5.41,10.82 -11.49,10.82 h -88.56 c -6.08,0 -10.14,-2.7 -10.82,-11.49 l -2.7,-37.18 c -18.93,33.8 -48.67,56.78 -95.31,56.78 C 50.85,847.71 0.15,796.33 0.15,710.48 Z"
       id="path53"
       style="fill:url(#linearGradient394)" />
    <path
       class="cls-1"
       d="M 397.64,828.78 V 519.17 c 0,-6.08 4.73,-10.82 10.82,-10.82 h 89.23 c 5.41,0 9.46,2.7 10.14,11.49 l 3.38,44.62 c 10.82,-37.18 31.1,-64.22 68.95,-64.22 16.9,0 25.69,4.73 30.42,8.79 5.41,4.06 6.76,8.79 6.76,14.87 v 75.04 c 0,8.11 -4.73,10.82 -14.2,8.79 -6.76,-2.03 -13.52,-3.38 -25.01,-3.38 -39.88,0 -66.92,20.96 -66.92,72.33 v 152.1 c 0,6.08 -4.73,10.82 -10.82,10.82 h -91.94 c -6.08,0 -10.82,-4.73 -10.82,-10.82 z"
       id="path55"
       style="fill:url(#linearGradient396)" />
    <path
       class="cls-1"
       d="m 651.14,790.25 c -3.38,-4.06 -2.7,-12.84 2.7,-20.28 l 29.74,-41.91 c 6.08,-9.46 12.17,-7.44 17.58,-4.06 30.42,20.28 52.73,29.74 73.68,29.74 14.87,0 24.34,-4.06 24.34,-16.22 0,-9.46 -6.08,-14.2 -26.36,-22.98 l -43.26,-16.9 c -43.94,-16.9 -71.66,-47.32 -71.66,-92.61 0,-66.92 57.46,-104.78 122.35,-104.78 45.29,0 87.2,18.25 116.95,53.4 4.06,4.73 2.7,10.14 -0.68,13.52 l -38.53,45.97 c -4.06,4.73 -9.46,4.06 -15.55,0 -21.63,-16.22 -39.21,-25.01 -56.11,-25.01 -18.25,0 -20.96,10.14 -20.96,16.9 0,8.79 9.46,16.22 20.96,20.28 l 52.73,20.96 c 41.24,16.22 73.68,46.64 73.01,96.67 -1.35,69.63 -60.84,104.78 -129.79,104.78 -56.11,0 -101.4,-22.31 -131.14,-57.46 z"
       id="path57"
       style="fill:url(#linearGradient398)" />
    <path
       class="cls-1"
       d="m 947.91,672.62 c 0,-97.34 68.28,-172.38 171.7,-172.38 103.42,0 160.21,73.68 160.21,158.86 0,35.83 -8.79,58.13 -41.91,58.13 h -179.14 c 12.17,30.42 41.24,41.91 82.47,41.91 18.93,0 40.56,-0.68 68.28,-15.55 5.41,-2.7 8.79,-1.35 12.17,4.06 l 31.1,43.26 c 2.7,4.06 3.38,9.46 -3.38,15.55 -27.71,28.39 -70.3,41.24 -117.62,41.24 -108.83,0 -183.87,-73.01 -183.87,-175.08 z M 1179.1,639.5 c -6.76,-35.15 -31.1,-46.64 -58.81,-46.64 -27.71,0 -54.76,12.84 -63.54,46.64 h 122.36 z"
       id="path59"
       style="fill:url(#linearGradient400)" />
    <path
       class="cls-1"
       d="M 1333.22,828.78 V 519.17 c 0,-6.08 4.73,-10.82 10.82,-10.82 h 89.23 c 5.41,0 10.14,2.7 10.14,11.49 l 2.7,33.12 c 18.93,-31.1 49.35,-52.73 92.61,-52.73 40.56,0 73.01,19.6 91.94,55.43 19.6,-32.45 52.73,-55.43 101.4,-55.43 72.33,0 116.95,50.7 116.95,137.23 v 191.31 c 0,6.08 -4.73,10.82 -10.82,10.82 h -91.94 c -6.08,0 -10.82,-4.73 -10.82,-10.82 V 664.5 c 0,-39.88 -13.52,-60.16 -43.94,-60.16 -30.42,0 -43.94,20.28 -43.94,60.16 v 164.27 c 0,6.08 -4.73,10.82 -10.82,10.82 h -90.58 c -7.44,0 -12.17,-4.73 -12.17,-10.82 V 664.5 c 0,-39.88 -12.84,-60.16 -43.26,-60.16 -28.39,0 -43.94,20.28 -43.94,60.16 v 164.27 c 0,6.08 -4.73,10.82 -10.82,10.82 h -91.94 c -6.08,0 -10.82,-4.73 -10.82,-10.82 z"
       id="path61"
       style="fill:url(#linearGradient402)" />
  </g>
</svg>
